<svg xmlns="http://www.w3.org/2000/svg" preserveAspectRatio="none" viewBox="0 0 1 1" width="152.2017396560015" height="166.41654784431555">
<g transform="matrix(0.0065702271357748485,-0,-0,0.006009017810749869,-0.3409014438894141,-0.279025134499173)"><defs></defs><g transform="matrix(
1,0,0,1,0,0)" style="mix-blend-mode: normal; opacity: 1"><g transform="matrix(
150.75418218555959,-53.90846681104191,53.908466811042096,150.75418218555953,26.3791168761325,78.02873181370586)" style="mix-blend-mode: normal; opacity: 1"><g transform="matrix(
0.005881266272396979,0.0021030928831026643,-0.0021030928831026717,0.005881266272396981,0.008959060175715822,-0.5143854816585852)"><path d="M204.08753246721312,99.4973560954437C204.08753246721312,99.4973560954437 167.12276565604424,137.70114430577814 167.12276565604424,137.70114430577814 C167.12276565604424,137.70114430577814 177.6382428307121,189.81014697147134 177.6382428307121,189.81014697147134 C177.6382428307121,189.81014697147134 129.88153996835527,166.4601844288729 129.88153996835527,166.4601844288729 C129.88153996835527,166.4601844288729 83.57239457644042,192.56356490142232 83.57239457644042,192.56356490142232 C83.57239457644042,192.56356490142232 91.02189582804344,139.92870620372514 91.02189582804344,139.92870620372514 C91.02189582804344,139.92870620372514 51.885792811211616,103.95247989133776 51.885792811211616,103.95247989133776 C51.885792811211616,103.95247989133776 104.24654064629397,94.77231076571132 104.24654064629397,94.77231076571132 C104.24654064629397,94.77231076571132 126.36824418658946,46.434399645148204 126.36824418658946,46.434399645148204 C126.36824418658946,46.434399645148204 151.27946477342982,93.39560180073585 151.27946477342982,93.39560180073585 C151.27946477342982,93.39560180073585 204.08753246721312,99.4973560954437 204.08753246721312,99.4973560954437 Z" fill="#FFFFFF" fill-opacity="0.000" stroke="#000000" stroke-width="5" stroke-dasharray="none" stroke-dashoffset="0" stroke-linecap="butt" stroke-linejoin="miter" stroke-miterlimit="4" /></g></g><g transform="matrix(
153.89337394218637,44.15626452774826,44.15626452774837,-153.89337394218637,28.11602626115109,187.71633607190628)" style="mix-blend-mode: normal; opacity: 1"><g transform="matrix(
0.006003733339865208,0.0017226371137248676,0.0017226371137248717,-0.006003733339865208,-0.4921682516185152,1.0785651149843236)"><path d="M204.08753246721164,154.92591362856137C204.08753246721164,154.92591362856137 164.75503447778428,119.16450956026624 164.75503447778428,119.16450956026624 C164.75503447778428,119.16450956026624 171.9162309882194,66.4896513871006 171.9162309882194,66.4896513871006 C171.9162309882194,66.4896513871006 125.7507043072518,92.84619830229897 125.7507043072518,92.84619830229897 C125.7507043072518,92.84619830229897 77.86686861852262,69.75806934478125 77.86686861852262,69.75806934478125 C77.86686861852262,69.75806934478125 88.66750201057187,121.80871523275016 88.66750201057187,121.80871523275016 C88.66750201057187,121.80871523275016 51.91246753278685,160.2143249735292 51.91246753278685,160.2143249735292 C51.91246753278685,160.2143249735292 104.75315275006798,166.02684635348055 104.75315275006798,166.02684635348055 C104.75315275006798,166.02684635348055 129.9211278738518,212.85094748946375 129.9211278738518,212.85094748946375 C129.9211278738518,212.85094748946375 151.77783393491637,164.39263737464023 151.77783393491637,164.39263737464023 C151.77783393491637,164.39263737464023 204.08753246721164,154.92591362856137 204.08753246721164,154.92591362856137 Z" fill="#FFFFFF" fill-opacity="0.000" stroke="#000000" stroke-width="5" stroke-dasharray="none" stroke-dashoffset="0" stroke-linecap="butt" stroke-linejoin="miter" stroke-miterlimit="4" /></g></g><g transform="matrix(
1,0,0,1,0,0)" style="mix-blend-mode: normal; opacity: 1"></g></g></g></svg>